<svg xmlns="http://www.w3.org/2000/svg" viewBox="0 0 48 48" width="48" height="48">
  <defs>
    <linearGradient id="bgGrad" x1="0%" y1="0%" x2="100%" y2="100%">
      <stop offset="0%" stop-color="#1e1e2f"/>
      <stop offset="100%" stop-color="#12131c"/>
    </linearGradient>
    <linearGradient id="accentGrad" x1="0%" y1="0%" x2="100%" y2="100%">
      <stop offset="0%" stop-color="#f87171"/><stop offset="100%" stop-color="#dc2626"/>
    </linearGradient>
  </defs>
  <rect width="48" height="48" rx="12" ry="12" fill="url(#bgGrad)" />
  <rect width="46" height="46" x="1" y="1" rx="11" ry="11" fill="none" stroke="rgba(255, 255, 255, 0.09)" stroke-width="1" />
  
    <ellipse cx="24" cy="22" rx="3.5" ry="5.5" fill="url(#accentGrad)" />
    <circle cx="24" cy="15" r="2.5" fill="url(#accentGrad)" />
    <path d="M21 18 C16 16 13 13 11 11 M21 21 C15 21 11 19 9 17 M21 23 C15 26 12 28 10 32 M21 25 C16 29 14 33 13 36" stroke="url(#accentGrad)" stroke-width="1.8" fill="none" stroke-linecap="round" />
    <path d="M27 18 C32 16 35 13 37 11 M27 21 C33 21 37 19 39 17 M27 23 C33 26 36 28 38 32 M27 25 C32 29 34 33 35 36" stroke="url(#accentGrad)" stroke-width="1.8" fill="none" stroke-linecap="round" />
    <text x="24" y="43" font-family="-apple-system,BlinkMacSystemFont,Segoe UI,Roboto,sans-serif" font-size="6.5" font-weight="900" fill="#ffffff" text-anchor="middle" letter-spacing="0.5">SPIDER 2000</text>
    
</svg>